<svg width="1608" height="808" viewBox="0 0 1608 808" fill="none" xmlns="http://www.w3.org/2000/svg">
<g id="confetti-doodles 1" filter="url(#filter0_d_1_2)">
<path id="Vector" d="M1604 0H4V800H1604V0Z" fill="white"/>
<path id="Vector_2" d="M1106.5 734.8C1109 733.6 1131.3 726.2 1132.1 727.3C1132.6 728 1128.2 751.1 1127.5 751.8C1127.3 752.1 1111.5 739.5 1106.5 734.8ZM1230.3 229.1C1230.3 229 1225.4 219.7 1223.3 214.9C1223.2 214.6 1223 213.8 1222.9 213.3C1222.8 212.9 1222.6 212.6 1222.3 212.4C1222 212.2 1221.7 212.3 1221.5 212.5L1208.4 224.8C1208.2 225 1208.1 225.3 1208 225.6C1208 225.9 1208 226.3 1208.2 226.6C1208.3 226.7 1209.6 229.1 1210.3 230.2C1212.7 233.9 1216.8 242.3 1216.8 242.4C1217 242.7 1217.2 242.9 1217.5 243C1217.8 243 1218 242.9 1218.2 242.7C1218.2 242.7 1220 240.2 1220.9 239.1C1222.4 237.5 1223.9 235.9 1225.5 234.4C1226.7 233.2 1227.1 233 1227.6 232.8C1228.1 232.5 1228.7 232.3 1230.1 230.9C1230.5 230.4 1230.6 229.6 1230.3 229.1ZM37 770.3C37 769.6 36.5 769.1 35.8 769.1C35.7 769.1 35.5 769.1 35.4 769.2C33.8 769.4 21.1 769.3 13.2 769.2C12.9 769.2 12.6 769.3 12.3 769.6C12.1 769.8 11.9 770.1 11.9 770.5C11.9 770.7 11.9 775.4 12 776.4L12.4 790C12.4 790.3 12.6 790.6 12.8 790.9C13 791.1 13.3 791.2 13.6 791.2H13.7C21 790.5 28.4 790.3 35.7 790.6C36 790.6 36.4 790.5 36.6 790.3C36.8 790.1 37 789.7 37 789.4C36.9 783.3 36.9 776.2 37 770.3Z" fill="#00BFA6" fill-opacity="0.25"/>
<path id="Vector_3" d="M175.1 383.4C176.4 380.9 189.4 361.4 190.7 361.8C191.5 362.1 202.2 383 202.2 383.9C202.1 384.2 181.9 384 175.1 383.4ZM600.4 711.8C600.3 711.7 593.7 703.6 590.7 699.3C590.5 699 590.2 698.3 590 697.8C589.8 697.4 589.6 697.1 589.3 697C589 696.9 588.7 697 588.5 697.3L578 712C577.8 712.2 577.8 712.5 577.8 712.9C577.8 713.2 578 713.6 578.2 713.8C578.3 713.9 580 716 581 716.9C584.1 720 589.8 727.4 589.9 727.5C590.1 727.8 590.4 727.9 590.7 727.9C591 727.9 591.2 727.7 591.3 727.4C591.3 727.4 592.5 724.6 593.3 723.3C594.4 721.4 595.6 719.6 596.8 717.8C597.7 716.4 598.1 716.1 598.5 715.8C599 715.4 599.5 715.1 600.6 713.4C600.9 713.1 600.8 712.3 600.4 711.8ZM731.5 179.9C732.1 180.1 732.8 179.7 732.9 179.1C732.9 179 732.9 178.9 732.9 178.7C733.1 177.3 735.7 166.1 737.4 159.2C737.5 158.9 737.4 158.6 737.2 158.4C737 158.1 736.7 158 736.4 157.9C736.2 157.9 731.7 156.8 730.7 156.6L717.3 153.9C717 153.8 716.6 153.9 716.4 154.1C716.2 154.3 716 154.5 715.9 154.7V154.8C715.1 161.3 713.7 167.9 712 174.2C711.9 174.5 712 174.8 712.2 175.1C712.4 175.4 712.7 175.5 713 175.6C718.8 176.9 725.7 178.5 731.5 179.9ZM732.5 178.1C732.4 178 732.3 177.9 732.1 177.9C732.3 177.9 732.4 178 732.5 178.1Z" fill="#00BFA6" fill-opacity="0.25"/>
<g id="Group">
<path id="Vector_4" d="M703.6 472.7C702.1 472.7 700.8 471.9 700.1 470.4C699.3 468.5 700.1 466.2 702 465.4C705.7 463.8 708.8 460.7 710.4 456.9C712 453.1 712.1 448.8 710.6 445C710.3 444.1 709.8 443.2 709.4 442.2C708.6 440.5 707.6 438.5 707.1 436.3C706.2 432.2 706.9 427.7 709.1 423.5C710.8 420.4 713.2 417.4 716.7 414.4C718.3 413 720.7 413.2 722 414.8C723.4 416.4 723.2 418.8 721.6 420.1C718.8 422.6 716.9 424.8 715.7 427.1C714.3 429.7 713.8 432.4 714.4 434.7C714.7 436.1 715.4 437.5 716.1 439C716.6 440.1 717.1 441.2 717.6 442.3C719.7 447.9 719.6 454.3 717.3 459.9C715 465.4 710.5 470 705 472.4C704.6 472.6 704.1 472.7 703.6 472.7ZM744.4 421.4C745.9 421.2 747.4 421.9 748.2 423.3C749.3 425.1 748.6 427.5 746.8 428.6C743.1 430.7 740.4 434.2 739.2 438.1C738 442.1 738.4 446.5 740.3 450.2C740.7 451.1 741.3 451.9 741.9 452.9C742.9 454.6 744.1 456.4 744.9 458.6C746.3 462.6 746.1 467.3 744.3 471.8C742.9 475.2 740.8 478.4 737.5 481.9C736 483.5 733.6 483.6 732 482.1C730.4 480.7 730.3 478.2 731.8 476.7C734.4 473.9 736.1 471.4 737.1 469C738.2 466.2 738.4 463.4 737.6 461.1C737.1 459.8 736.3 458.4 735.4 457C734.8 456 734.1 454.9 733.5 453.8C730.7 448.4 730.1 441.9 731.8 436C733.6 430.1 737.6 425 743 422C743.4 421.6 743.9 421.4 744.4 421.4ZM265.3 590.9C271 597.7 274.3 606.6 274.7 613.3C275.2 620.6 272.3 629.7 264.5 633.7C261.5 635.2 257.8 635.9 253.3 635.9C245.4 635.8 240.4 633 237.9 627.5C235.8 622.8 235.6 616.1 239.7 611.6C242.9 608.1 247.5 607.5 250.9 610C252.1 610.9 252.4 612.7 251.5 613.9C250.6 615.1 248.8 615.4 247.6 614.5C245.8 613.2 244 615.1 243.8 615.3C241.4 617.9 241.7 622.3 243 625.2C244.5 628.6 247.7 630.2 253.4 630.3C257 630.3 259.8 629.8 262 628.7C266.7 626.3 269.7 620.1 269.2 613.7C268.7 606.4 263.9 595.5 256.2 589.8C252 586.7 247.7 585.7 243.3 586.7C240.2 587.4 237.1 589.1 233.6 591.7C227 596.8 221.9 603.5 219.4 610.7C216.7 618.4 217.3 626.5 221.3 634.6C222 636 221.4 637.7 220 638.3C218.6 639 216.9 638.4 216.3 637C211.7 627.6 210.9 617.8 214.1 608.8C217 600.6 222.7 592.9 230.2 587.2C234.3 584.1 238.2 582.1 242 581.2C248 579.8 254 581.2 259.5 585.2C261.6 586.9 263.6 588.8 265.3 590.9Z" fill="#00BFA6" fill-opacity="0.25"/>
<path id="Vector_5" d="M1017.7 161C1021.62 161 1024.8 157.821 1024.8 153.9C1024.8 149.979 1021.62 146.8 1017.7 146.8C1013.78 146.8 1010.6 149.979 1010.6 153.9C1010.6 157.821 1013.78 161 1017.7 161Z" fill="#00BFA6" fill-opacity="0.25"/>
<path id="Vector_6" d="M1028.3 139.2C1032.22 139.2 1035.4 136.021 1035.4 132.1C1035.4 128.179 1032.22 125 1028.3 125C1024.38 125 1021.2 128.179 1021.2 132.1C1021.2 136.021 1024.38 139.2 1028.3 139.2Z" fill="#00BFA6" fill-opacity="0.25"/>
<path id="Vector_7" d="M1041.3 156C1045.22 156 1048.4 152.821 1048.4 148.9C1048.4 144.979 1045.22 141.8 1041.3 141.8C1037.38 141.8 1034.2 144.979 1034.2 148.9C1034.2 152.821 1037.38 156 1041.3 156Z" fill="#00BFA6" fill-opacity="0.25"/>
<path id="Vector_8" d="M1512.7 297.2C1507.9 291.8 1503 286.4 1497.9 281C1503.5 275.4 1509 269.5 1513.5 262.8C1514.7 261.1 1514.2 258.7 1512.5 257.6C1510.8 256.4 1508.4 256.9 1507.3 258.6C1503.1 264.8 1498.2 270.2 1492.8 275.5C1488 270.5 1483.1 265.5 1478.1 260.6C1476.6 259.1 1474.2 259.1 1472.8 260.6C1471.3 262.1 1471.3 264.5 1472.8 265.9C1477.7 270.7 1482.5 275.7 1487.3 280.7C1486.2 281.8 1485 282.9 1483.8 283.9C1479.7 287.7 1475.4 291.7 1471.4 295.9C1470 297.4 1470 299.7 1471.4 301.2C1472.9 302.6 1475.3 302.6 1476.7 301.1C1480.6 297.1 1484.8 293.2 1488.8 289.4C1490 288.3 1491.1 287.2 1492.3 286.1C1497.2 291.4 1502.1 296.7 1506.9 302C1507 302.1 1507 302.1 1507.1 302.2C1508.5 303.6 1510.8 303.7 1512.3 302.4C1514 301.2 1514.1 298.8 1512.7 297.2ZM331.6 248.6L331.2 246C329.7 234.9 329 222.8 328.9 209C328.9 203.5 328.9 197.5 329.1 190.5C329.1 189.8 329.1 189 329.1 188.2C329.1 183.2 329.1 177 333 174.7C335.2 173.4 338.1 173.7 341.5 175.6C347.2 178.7 354.7 184.3 359 190.5C364.5 198.3 366.3 207.4 364 216.2C360.8 228.5 349 247.2 334 248.3L331.6 248.6ZM336.1 179.2C335.9 179.2 335.8 179.2 335.7 179.3C335.6 179.4 335 179.8 334.6 182C334.3 183.9 334.3 186.2 334.3 188.3C334.3 189.1 334.3 190 334.3 190.7C334.1 197.6 334.1 203.5 334.1 209C334.2 221.5 334.8 232.5 336.1 242.7C347.1 240 356.5 224.6 359.1 214.9C361 207.7 359.5 200.1 354.9 193.6C351 188.1 344 183 339 180.3C337.6 179.5 336.6 179.2 336.1 179.2ZM520.3 60.8C520.2 60.8 520.1 60.8 519.9 60.7C517.5 60 515.9 59.8 513.2 60C512.5 60 511.9 59.5 511.8 58.8C511.8 58.1 512.3 57.5 513 57.4C516.1 57.2 517.9 57.4 520.6 58.2C521.3 58.4 521.7 59.1 521.5 59.8C521.3 60.4 520.8 60.8 520.3 60.8ZM510.1 70.5C509.6 70.5 509.1 70.2 508.9 69.7C508.1 67.6 507.7 65.4 507.6 63.1C507.6 62.4 508.1 61.8 508.8 61.8C509.5 61.8 510.1 62.3 510.1 63C510.2 65 510.6 66.9 511.2 68.8C511.4 69.5 511.1 70.2 510.4 70.4C510.4 70.5 510.2 70.5 510.1 70.5ZM498.1 64.4C497.7 64.4 497.3 64.2 497.1 63.9C496.7 63.3 496.8 62.5 497.3 62.1C499.1 60.7 501 59.5 503.1 58.5C503.7 58.2 504.5 58.5 504.8 59.1C505.1 59.7 504.8 60.5 504.2 60.8C502.3 61.7 500.5 62.8 498.9 64.1C498.7 64.3 498.4 64.4 498.1 64.4ZM504.5 55.3C504 55.3 503.6 55 503.3 54.6C502.8 53.6 502.1 52.7 500.9 51.2C500.6 50.8 500.2 50.3 499.8 49.8C499.4 49.2 499.5 48.4 500 48C500.6 47.6 501.4 47.7 501.8 48.2C502.2 48.7 502.6 49.2 502.9 49.6C504.2 51.2 505 52.2 505.6 53.5C505.9 54.1 505.6 54.9 505 55.2C504.9 55.3 504.7 55.3 504.5 55.3ZM510.7 55C510.4 55 510.2 54.9 509.9 54.8C509.3 54.4 509.2 53.6 509.6 53C510.8 51.3 511.9 49.6 512.9 47.8C513.2 47.2 514 46.9 514.6 47.3C515.2 47.6 515.5 48.4 515.1 49C514.1 50.9 512.9 52.8 511.6 54.6C511.4 54.8 511.1 55 510.7 55ZM1033.3 382.8C1033.2 382.8 1033.1 382.8 1032.9 382.7C1030.5 382 1028.9 381.8 1026.2 382C1025.5 382 1024.9 381.5 1024.8 380.8C1024.8 380.1 1025.3 379.5 1026 379.4C1029.1 379.2 1030.9 379.4 1033.6 380.2C1034.3 380.4 1034.7 381.1 1034.5 381.8C1034.3 382.4 1033.8 382.8 1033.3 382.8ZM1023.1 392.5C1022.6 392.5 1022.1 392.2 1021.9 391.7C1021.1 389.6 1020.7 387.4 1020.6 385.1C1020.6 384.4 1021.1 383.8 1021.8 383.8C1022.5 383.8 1023.1 384.3 1023.1 385C1023.2 387 1023.6 388.9 1024.2 390.8C1024.4 391.5 1024.1 392.2 1023.4 392.4C1023.4 392.5 1023.2 392.5 1023.1 392.5ZM1011.1 386.4C1010.7 386.4 1010.3 386.2 1010.1 385.9C1009.7 385.3 1009.8 384.5 1010.3 384.1C1012.1 382.7 1014 381.5 1016.1 380.5C1016.7 380.2 1017.5 380.5 1017.8 381.1C1018.1 381.7 1017.8 382.5 1017.2 382.8C1015.3 383.7 1013.5 384.8 1011.9 386.1C1011.7 386.3 1011.4 386.4 1011.1 386.4ZM1017.5 377.3C1017 377.3 1016.6 377 1016.3 376.6C1015.8 375.6 1015.1 374.7 1013.9 373.2C1013.6 372.8 1013.2 372.3 1012.8 371.8C1012.4 371.2 1012.5 370.4 1013 370C1013.6 369.6 1014.4 369.7 1014.8 370.2C1015.2 370.7 1015.6 371.2 1015.9 371.6C1017.2 373.2 1018 374.2 1018.6 375.5C1018.9 376.1 1018.6 376.9 1018 377.2C1017.9 377.3 1017.7 377.3 1017.5 377.3ZM1023.7 377C1023.4 377 1023.2 376.9 1022.9 376.8C1022.3 376.4 1022.2 375.6 1022.6 375C1023.8 373.3 1024.9 371.6 1025.9 369.8C1026.2 369.2 1027 368.9 1027.6 369.3C1028.2 369.6 1028.5 370.4 1028.1 371C1027.1 372.9 1025.9 374.8 1024.6 376.6C1024.4 376.8 1024.1 377 1023.7 377ZM1333.7 573.4C1332.3 573.4 1330.8 573.2 1329.2 572.7C1320.8 570 1312.6 560 1310.5 552.7C1310.1 551.3 1309.8 549.8 1309.6 548.3C1301.5 551.6 1294.1 558.9 1294.2 569.3C1294.2 570.8 1293 572 1291.5 572.1C1290 572.1 1288.8 570.9 1288.8 569.4C1288.7 562.7 1291.2 556.5 1295.8 551.4C1299.4 547.4 1304.2 544.3 1309.5 542.6C1310 536.1 1312.6 529.7 1316.9 525.2C1323.9 517.8 1335.1 516.3 1344.2 515.1L1344.9 515C1346.4 514.8 1347.8 515.9 1348 517.3C1348.2 518.8 1347.1 520.2 1345.7 520.4L1345 520.5C1336.4 521.7 1326.6 523 1321 528.9C1318 532.1 1316 536.6 1315.3 541.3C1323.2 540.3 1333 542.6 1339.6 547C1343.9 549.9 1346.7 554.8 1346.8 559.7C1347 564 1345.1 568 1341.6 570.8C1339.2 572.4 1336.6 573.4 1333.7 573.4ZM1315 546.7C1315.1 548.2 1315.4 549.7 1315.8 551.1C1317.5 556.9 1324.5 565.3 1330.9 567.4C1333.7 568.3 1336 567.9 1338.1 566.3C1340.8 564.2 1341.3 561.5 1341.2 559.7C1341.1 556.5 1339.2 553.3 1336.4 551.4C1330.7 547.5 1321.7 545.6 1315 546.7Z" fill="#00BFA6" fill-opacity="0.25"/>
</g>
</g>
<defs>
<filter id="filter0_d_1_2" x="0" y="0" width="1608" height="808" filterUnits="userSpaceOnUse" color-interpolation-filters="sRGB">
<feFlood flood-opacity="0" result="BackgroundImageFix"/>
<feColorMatrix in="SourceAlpha" type="matrix" values="0 0 0 0 0 0 0 0 0 0 0 0 0 0 0 0 0 0 127 0" result="hardAlpha"/>
<feOffset dy="4"/>
<feGaussianBlur stdDeviation="2"/>
<feComposite in2="hardAlpha" operator="out"/>
<feColorMatrix type="matrix" values="0 0 0 0 0 0 0 0 0 0 0 0 0 0 0 0 0 0 0.25 0"/>
<feBlend mode="normal" in2="BackgroundImageFix" result="effect1_dropShadow_1_2"/>
<feBlend mode="normal" in="SourceGraphic" in2="effect1_dropShadow_1_2" result="shape"/>
</filter>
</defs>
</svg>
