<svg width="518" height="486" viewBox="0 0 518 486" fill="none" xmlns="http://www.w3.org/2000/svg">
<g id="Frame 1">
<path id="Vector" d="M27.6659 223.808C32.8882 230.023 42.143 230.813 48.3371 225.574C48.9371 225.066 49.4956 224.511 50.0071 223.914L119.712 246.064L130.558 228.226L47.5776 202.526C41.0673 197.707 31.8959 199.095 27.0926 205.627C23.0735 211.092 23.3106 218.609 27.666 223.808H27.6659Z" fill="#C37984"/>
<path id="Vector_2" d="M320.905 100.39C320.905 100.39 317.642 129.18 329.607 131.483C341.571 133.786 318.73 172.94 318.73 172.94L264.346 179.849L277.398 133.786C277.398 133.786 286.099 130.331 280.661 107.3C275.223 84.2683 320.905 100.39 320.905 100.39Z" fill="#C47984"/>
<path id="Vector_3" d="M274.52 168.458C274.52 168.458 243.652 133.623 230.206 148.421C216.76 163.218 174.809 228.061 174.809 228.061L76.883 207.332L67.4131 233.261L178.604 269.411C186.963 272.129 196.123 269.311 201.527 262.359L274.52 168.458V168.458Z" fill="#00BFA6"/>
<path id="Vector_4" d="M207.477 486H360.582L360.721 484.801L360.811 484.001L362.126 472.809L363.988 456.869L364.706 450.743C364.755 450.433 364.805 450.133 364.845 449.824C365.473 445.836 365.831 441.829 365.961 437.831C366.15 432.335 365.901 426.849 365.313 421.432V421.402C364.994 418.474 364.586 415.576 364.078 412.708C363.441 409.02 362.674 405.392 361.787 401.845C360.771 397.727 359.616 393.72 358.351 389.853C356.896 385.325 355.303 380.988 353.659 376.891C353.48 376.451 353.301 376.012 353.131 375.582L353.121 375.572C344.456 354.376 334.615 339.895 334.615 339.895H223.076C223.076 339.895 217.916 362.61 215.356 381.368C214.948 384.336 214.609 387.194 214.36 389.853C213.912 394.759 213.782 398.977 214.171 401.845C214.41 403.624 214.848 404.883 215.526 405.462C221.661 410.719 214.639 421.872 214.639 421.872C214.639 421.872 209.38 429.936 213.962 434.474C214.868 435.373 215.386 436.532 215.635 437.831C216.033 439.98 215.685 442.478 215.137 444.687C214.589 446.905 213.832 448.834 213.414 449.824C213.225 450.263 213.105 450.513 213.105 450.513L212.328 456.679L211.571 462.615L210.286 472.809L209.898 474.607L207.896 484.001L207.726 484.801L207.477 486H207.477Z" fill="#2F2E41"/>
<path id="Vector_5" d="M284.813 120.8L331.626 124.983L340.254 151.921L349.657 153.287C365.724 155.621 375.287 172.529 369.044 187.565L360.771 207.491C360.771 207.491 372.923 245.124 357.998 260.937L351.646 330.58L365.973 376.49L198.503 381.914L227.029 324.326L227.875 288.57C227.875 288.57 209.646 223.94 226.547 203.383L233.14 144.911L267.494 139.741L284.813 120.8H284.813Z" fill="#00BFA6"/>
<path id="Vector_6" d="M18.3186 484.65H443.414L509.377 485.65L46.7705 451.732C31.339 450.601 18.3186 465.665 18.3186 484.65V484.65V484.65Z" fill="#3F3D56"/>
<path id="Vector_7" d="M358.064 451.38C353.874 444.423 356.099 435.375 363.034 431.172C363.706 430.765 364.409 430.412 365.137 430.118L366.607 356.774L386.927 352.195L384.546 439.293C387.005 447.027 382.75 455.295 375.042 457.762C368.593 459.827 361.574 457.188 358.064 451.38V451.38Z" fill="#C37984"/>
<path id="Vector_8" d="M343.928 162.011C343.928 162.011 368.829 156.015 376.798 173.004C384.766 189.993 385.444 263.921 385.444 263.921L389.747 413.847L358.16 412.45L332.971 227.968L343.928 162.011V162.011Z" fill="#00BFA6"/>
<g id="Group">
<path id="Vector_9" d="M355.105 473.503C354.544 474.208 353.693 474.617 352.794 474.612H191.093C189.45 474.61 188.12 473.272 188.122 471.623C188.122 471.419 188.143 471.215 188.185 471.014L190.695 459.052C190.906 458.061 191.604 457.245 192.548 456.884C192.884 456.751 193.242 456.683 193.603 456.684H350.294C350.655 456.683 351.013 456.751 351.35 456.884C352.294 457.245 352.991 458.061 353.202 459.052L355.712 471.014C355.893 471.893 355.67 472.807 355.105 473.503V473.503Z" fill="#CCCCCC"/>
<path id="Vector_10" d="M417.01 205.717V392.855C417.006 397.821 412.995 401.845 408.046 401.849H131.639C126.689 401.846 122.678 397.821 122.674 392.855V205.717C122.686 200.756 126.694 196.739 131.639 196.733H408.046C412.99 196.739 416.998 200.756 417.01 205.717V205.717Z" fill="#E6E6E6"/>
<path id="Vector_11" d="M235.277 361.831C235.606 361.721 235.955 361.671 236.303 361.671H300.968C302.87 361.671 304.424 363.22 304.424 365.129V467.622H232.857V365.129C232.857 363.62 233.833 362.28 235.277 361.831V361.831ZM261.215 412.238C261.235 416.475 264.671 419.893 268.894 419.873C273.088 419.843 276.474 416.445 276.494 412.238V400.346C276.455 396.118 272.998 392.721 268.785 392.761C264.621 392.801 261.255 396.178 261.215 400.346V412.238V412.238Z" fill="#CCCCCC"/>
</g>
<path id="Vector_12" d="M319.947 11.987C321.903 11.8455 323.862 12.2309 325.564 13.0919C327.236 14.0996 328.289 15.865 329.364 17.5078C333.475 23.8639 339.041 29.399 345.708 33.7625C350.564 36.8949 356.738 40.8005 355.908 46.5758C355.469 48.483 354.669 50.3116 353.54 51.9847C349.06 59.9472 336.835 66.1006 338.038 75.1865C333.587 68.6257 339.54 65.3816 335.089 58.8209C332.969 55.6965 329.287 52.1697 326.087 54.1318C325.015 54.7888 324.312 55.9671 323.196 56.5435C320.534 57.919 317.701 55.2894 315.345 53.4268C307.218 47.0039 295.662 48.6865 285.55 50.6878C280.776 51.6325 275.532 52.8721 272.71 56.8894C268.999 62.1714 276.235 67.876 278.063 73.8478C278.213 74.3567 278.22 74.8898 278.084 75.4015C277.948 75.9133 277.674 76.3885 277.284 76.7865C276.894 77.1845 276.4 77.4935 275.846 77.6869C275.291 77.8804 274.691 77.9527 274.097 77.8975C271.063 77.634 267.468 77.418 267.289 76.2456C263.471 76.3653 258.793 75.9846 257.158 72.4847C256.658 71.0999 256.394 69.6576 256.374 68.2046C255.773 62.3255 252.939 56.962 251.062 51.3665C249.184 45.7709 248.368 39.2133 251.536 34.2522C252.667 32.6016 254.066 31.1052 255.687 29.8103C273.667 14.4906 297.306 11.9642 319.947 11.987Z" fill="#2F2E41"/>
<path id="Vector_13" d="M264.116 83.2719C259.292 62.397 272.248 41.5511 293.054 36.7113C313.86 31.8714 334.638 44.8704 339.462 65.7453C344.285 86.6202 331.329 107.466 310.523 112.306C289.717 117.146 268.94 104.147 264.116 83.2719Z" fill="#C37984"/>
<path id="Vector_14" d="M313.06 25.9707C314.671 25.8674 316.284 26.1383 317.733 26.7552C319.043 27.5835 320.123 28.6547 320.893 29.8906C324.446 34.516 329.076 38.4472 334.488 41.4317C338.527 43.6557 343.663 46.4288 342.972 50.5293C342.596 51.9042 341.929 53.2065 341.003 54.3697C337.263 60.0804 335.775 66.6899 336.762 73.1982L325.655 59.2236C323.892 57.0052 320.829 54.5011 318.167 55.8942C317.276 56.3607 316.691 57.1973 315.763 57.6066C313.548 58.5832 311.192 56.7162 309.232 55.3937C302.473 50.8333 292.861 52.028 284.449 53.4489C280.479 54.1197 276.117 54.9998 273.77 57.8522C269.869 62.5923 273.942 69.4414 271.665 74.9174C271.028 74.5312 270.487 74.0381 270.074 73.4675C269.661 72.8968 269.384 72.2602 269.261 71.5953C266.085 71.6803 262.194 71.4101 260.834 68.925C260.42 67.9511 260.2 66.9237 260.182 65.8861C259.682 61.7118 257.325 57.9037 255.763 53.9308C254.202 49.9578 253.523 45.3018 256.158 41.7794C257.122 40.5859 258.286 39.523 259.611 38.6256C274.566 27.7484 294.229 25.9546 313.06 25.9707Z" fill="#2F2E41"/>
</g>
</svg>
